<svg width="159" height="45" viewBox="0 0 159 45" fill="none" xmlns="http://www.w3.org/2000/svg">
<path d="M50.3041 12.759C51.1016 12.3164 51.7606 11.7488 52.2691 11.0641C52.9208 10.1764 53.2513 9.14667 53.2513 8.00354C53.2513 5.88065 52.5709 4.24856 51.2308 3.15419C49.9188 2.07324 47.9477 1.52515 45.3731 1.52515H37.4949V25.3012H45.8346C48.3611 25.3012 50.3504 24.6763 51.7484 23.4429C53.158 22.2004 53.8719 20.4744 53.8719 18.3137C53.8719 16.895 53.4823 15.6562 52.716 14.6331C52.099 13.7906 51.29 13.162 50.3041 12.759ZM48.469 10.4745C47.7337 11.0927 46.7235 11.4055 45.467 11.4055H41.1578V4.6485H45.3719C46.8113 4.6485 47.8886 4.92103 48.5745 5.46059C49.2439 5.97698 49.5695 6.8037 49.5695 7.98768C49.5701 9.0473 49.2104 9.85999 48.469 10.4745ZM41.1584 14.4636H45.9449C48.8019 14.4636 50.1907 15.733 50.1907 18.3436C50.1907 19.5581 49.8182 20.4829 49.0512 21.1713C48.2958 21.848 47.235 22.1912 45.8974 22.1912H41.159V14.4636H41.1584Z" fill="#130F40"/>
<path d="M152.082 1.52417V18.7346L140.859 1.52417H137.318V25.2996H140.999V8.16717L152.191 25.2996H155.732V1.52417H152.082Z" fill="#130F40"/>
<path d="M111.139 12.7483C111.959 11.6289 112.375 10.2992 112.375 8.79818C112.375 6.44484 111.626 4.62131 110.151 3.3788C108.701 2.14848 106.611 1.52417 103.94 1.52417H95.9663V25.2996H99.6463V15.9283H104.601L109.628 25.2996H113.393V24.7253L108.081 15.1248C109.368 14.5754 110.395 13.7774 111.139 12.7483ZM108.695 8.79879C108.695 10.0328 108.287 10.9881 107.446 11.7203C106.616 12.4513 105.469 12.822 104.035 12.822H99.6469V4.64875H104.018C105.546 4.65911 106.72 5.02308 107.509 5.73335C108.307 6.4424 108.695 7.44532 108.695 8.79879Z" fill="#130F40"/>
<path d="M61.6835 1.52417H58.0188V25.2996H61.6835V1.52417Z" fill="#130F40"/>
<path d="M84.6989 1.52417H80.1922L70.3387 12.4891V1.52417H66.6746V25.2996H70.3387V17.2897L72.8396 14.6913L80.9251 25.2996H85.3501L75.2972 12.0752L84.6989 1.52417Z" fill="#130F40"/>
<path d="M122.76 1.52417L113.68 25.2996H117.488L119.668 19.2535H128.946L131.157 25.2996H134.948L125.852 1.52417H122.76ZM127.815 16.1301H120.81L124.305 6.4924L127.815 16.1301Z" fill="#130F40"/>
<path d="M90.9905 1.52417H87.3264V25.2996H90.9905V1.52417Z" fill="#130F40"/>
<path d="M9.342 13.8067C12.8179 13.8067 15.6357 10.9889 15.6357 7.51302C15.6357 4.03713 12.8179 1.21936 9.342 1.21936C5.86611 1.21936 3.04834 4.03713 3.04834 7.51302C3.04834 10.9889 5.86611 13.8067 9.342 13.8067Z" fill="#F50303"/>
<path d="M23.5017 13.8067C26.9776 13.8067 29.7953 10.9889 29.7953 7.51302C29.7953 4.03713 26.9776 1.21936 23.5017 1.21936C20.0258 1.21936 17.208 4.03713 17.208 7.51302C17.208 10.9889 20.0258 13.8067 23.5017 13.8067Z" fill="#FFE600"/>
<path d="M16.4216 25.6063C19.8975 25.6063 22.7152 22.7885 22.7152 19.3126C22.7152 15.8367 19.8975 13.019 16.4216 13.019C12.9457 13.019 10.1279 15.8367 10.1279 19.3126C10.1279 22.7885 12.9457 25.6063 16.4216 25.6063Z" fill="#AE00B9"/>
<path fill-rule="evenodd" clip-rule="evenodd" d="M6.16438 37.0439C5.17366 36.7592 4.45181 36.4105 3.99882 35.9971C3.54949 35.5801 3.32513 35.0667 3.32513 34.4571C3.32513 33.7675 3.60009 33.1981 4.14941 32.7488C4.70299 32.2958 5.42058 32.069 6.30278 32.069C6.90452 32.069 7.43982 32.1854 7.90866 32.4177C8.38176 32.6506 8.74696 32.9713 9.00363 33.3798C9.26457 33.7889 9.39443 34.2357 9.39443 34.721H8.23361C8.23361 34.1919 8.06534 33.7767 7.72819 33.4761C7.39104 33.1713 6.91611 33.0188 6.30217 33.0188C5.73273 33.0188 5.28767 33.145 4.96698 33.3981C4.65056 33.6468 4.49205 33.9937 4.49205 34.4388C4.49205 34.7954 4.64264 35.0984 4.9432 35.3472C5.24804 35.5917 5.76322 35.8166 6.48934 36.0209C7.21912 36.2257 7.78855 36.4519 8.19764 36.7007C8.611 36.9451 8.91523 37.2323 9.11215 37.5609C9.31273 37.8895 9.41272 38.2767 9.41272 38.7217C9.41272 39.4314 9.13593 40.0008 8.58234 40.43C8.02876 40.855 7.28923 41.0677 6.36252 41.0677C5.76078 41.0677 5.19927 40.9531 4.678 40.7245C4.15673 40.4916 3.75373 40.1752 3.46901 39.774C3.18856 39.3735 3.04834 38.9186 3.04834 38.4096H4.20916C4.20916 38.9388 4.40364 39.3576 4.79262 39.6667C5.18585 39.9716 5.70895 40.124 6.36252 40.124C6.9722 40.124 7.43921 39.9996 7.76416 39.7509C8.08912 39.5021 8.25129 39.1631 8.25129 38.7345C8.25129 38.3053 8.1007 37.9749 7.80013 37.742C7.49956 37.5048 6.95391 37.2725 6.16438 37.0439ZM13.6664 41.0671C12.7842 41.0671 12.066 40.7781 11.513 40.2008C10.9595 39.6192 10.6833 38.8431 10.6833 37.8731V37.6688C10.6833 37.0232 10.8058 36.4476 11.0503 35.9422C11.299 35.4331 11.6435 35.0356 12.0849 34.7515C12.53 34.4625 13.011 34.3187 13.5286 34.3187C14.3749 34.3187 15.0321 34.5973 15.5015 35.1551C15.971 35.7124 16.2051 36.5104 16.2051 37.5493V38.0127H11.7959C11.8118 38.654 11.9983 39.1735 12.3556 39.5704C12.7165 39.9636 13.1738 40.1599 13.7274 40.1599C14.1206 40.1599 14.4535 40.0795 14.726 39.9191C14.9985 39.7588 15.2375 39.546 15.4418 39.2814L16.1216 39.8106C15.5753 40.6483 14.7571 41.0671 13.6664 41.0671ZM13.5323 35.232C13.083 35.232 12.7062 35.3966 12.4013 35.7252C12.0965 36.0501 11.9081 36.5074 11.8362 37.0969H15.0961V37.0128C15.0644 36.4476 14.912 36.0105 14.6388 35.7014C14.3669 35.3886 13.9975 35.232 13.5323 35.232ZM20.8977 35.4368C20.7295 35.4088 20.5472 35.3947 20.3503 35.3947C19.6205 35.3947 19.1254 35.7057 18.8645 36.3269V40.9464H17.7518V34.4382H18.8346L18.8529 35.1899C19.2181 34.6083 19.7351 34.3174 20.4045 34.3174C20.621 34.3174 20.7856 34.3455 20.8977 34.4016V35.4368V35.4368ZM24.4271 39.4357L26.0391 34.4369H27.1762L24.8423 40.9452H23.9943L21.6361 34.4369H22.7731L24.4271 39.4357ZM29.8246 40.9458H28.5924V34.4369H29.8246V40.9458ZM28.4992 32.7122C28.4992 32.5317 28.5534 32.3793 28.6619 32.2549C28.7735 32.1305 28.9381 32.0684 29.1546 32.0684C29.371 32.0684 29.5356 32.1305 29.6478 32.2549C29.76 32.3793 29.816 32.5317 29.816 32.7122C29.816 32.8926 29.76 33.0432 29.6478 33.1633C29.5356 33.2834 29.371 33.3438 29.1546 33.3438C28.9381 33.3438 28.7735 33.2834 28.6613 33.1633C28.5528 33.0426 28.4992 32.8926 28.4992 32.7122ZM34.3471 40.1587C34.744 40.1587 35.0909 40.0386 35.3879 39.7978C35.6848 39.557 35.8494 39.2564 35.8811 38.8955H36.934C36.9139 39.2686 36.7858 39.6234 36.5487 39.96C36.3121 40.2971 35.9951 40.5654 35.5982 40.766C35.2049 40.9665 34.7879 41.0665 34.3471 41.0665C33.4607 41.0665 32.7553 40.7714 32.2297 40.1825C31.7085 39.5887 31.4475 38.779 31.4475 37.7523V37.5658C31.4475 36.9323 31.564 36.369 31.7963 35.8758C32.0292 35.3825 32.3614 34.9997 32.7949 34.7271C33.232 34.4546 33.7472 34.3181 34.3404 34.3181C35.0702 34.3181 35.6756 34.5363 36.1573 34.9741C36.6426 35.4112 36.9011 35.9788 36.9334 36.6763H35.8805C35.8482 36.255 35.6878 35.9105 35.3994 35.6417C35.1147 35.3691 34.7617 35.2326 34.341 35.2326C33.7759 35.2326 33.3363 35.4368 33.0235 35.8465C32.715 36.2513 32.5602 36.8391 32.5602 37.6091V37.8194C32.5602 38.5693 32.7144 39.1467 33.0235 39.5521C33.3326 39.9563 33.7734 40.1587 34.3471 40.1587ZM41.131 41.0671C40.2488 41.0671 39.5312 40.7781 38.9776 40.2008C38.424 39.6192 38.1478 38.8431 38.1478 37.8731V37.6688C38.1478 37.0232 38.2704 36.4476 38.5149 35.9422C38.7636 35.4331 39.1087 35.0356 39.5495 34.7515C39.9945 34.4625 40.4756 34.3187 40.9932 34.3187C41.8394 34.3187 42.4973 34.5973 42.9661 35.1551C43.4355 35.7124 43.6697 36.5104 43.6697 37.5493V38.0127H39.2605C39.2764 38.654 39.4629 39.1735 39.8202 39.5704C40.1811 39.9636 40.6384 40.1599 41.1919 40.1599C41.5852 40.1599 41.9181 40.0795 42.1906 39.9191C42.4631 39.7588 42.7021 39.546 42.9063 39.2814L43.5861 39.8106C43.0399 40.6483 42.2223 41.0671 41.131 41.0671ZM40.9962 35.232C40.5469 35.232 40.1701 35.3966 39.8653 35.7252C39.5605 36.0501 39.3721 36.5074 39.2995 37.0969H42.56V37.0128C42.5277 36.4476 42.3753 36.0105 42.1028 35.7014C41.8303 35.3886 41.4614 35.232 40.9962 35.232ZM45.1743 42.6907L44.5427 42.2578C44.9195 41.7323 45.1164 41.1909 45.1323 40.6337V39.6289H46.2211V40.5014C46.2211 40.9062 46.1212 41.311 45.9206 41.7164C45.7236 42.1213 45.4749 42.4462 45.1743 42.6907ZM53.9298 37.0427C52.9391 36.758 52.2173 36.4092 51.7643 35.9959C51.315 35.5789 51.0906 35.0655 51.0906 34.4558C51.0906 33.7663 51.3656 33.1969 51.9149 32.7475C52.4685 32.2952 53.186 32.0684 54.0682 32.0684C54.67 32.0684 55.2053 32.1848 55.6741 32.4171C56.1472 32.65 56.5124 32.9707 56.7691 33.3798C57.03 33.7889 57.1599 34.2357 57.1599 34.721H55.9991C55.9991 34.1919 55.8308 33.7767 55.4937 33.4761C55.1571 33.1713 54.6816 33.0188 54.0682 33.0188C53.4988 33.0188 53.0537 33.145 52.7331 33.3974C52.416 33.6462 52.2581 33.9931 52.2581 34.4382C52.2581 34.7948 52.4081 35.0978 52.7093 35.3466C53.0141 35.5911 53.5293 35.816 54.2548 36.0203C54.9846 36.2245 55.554 36.4513 55.9631 36.7C56.3759 36.9445 56.6807 37.2311 56.8776 37.5603C57.0782 37.8889 57.1782 38.2761 57.1782 38.7211C57.1782 39.4308 56.9014 40.0002 56.3484 40.4294C55.7948 40.8544 55.0553 41.0671 54.1286 41.0671C53.5269 41.0671 52.9653 40.9525 52.4441 40.7245C51.9228 40.4916 51.5198 40.1752 51.2351 39.774C50.954 39.3729 50.8138 38.918 50.8138 38.4084H51.9746C51.9746 38.9375 52.1691 39.3564 52.5581 39.6655C52.9513 39.9703 53.4744 40.1228 54.128 40.1228C54.7377 40.1228 55.2047 39.9984 55.5296 39.7496C55.8546 39.5009 56.0168 39.1619 56.0168 38.7333C56.0168 38.3041 55.8662 37.9737 55.5656 37.7408C55.265 37.5042 54.72 37.2713 53.9298 37.0427ZM61.4325 41.0671C60.5503 41.0671 59.8321 40.7781 59.2785 40.2008C58.7249 39.6192 58.4487 38.8431 58.4487 37.8731V37.6688C58.4487 37.0232 58.5713 36.4476 58.8158 35.9422C59.0645 35.4331 59.409 35.0356 59.8504 34.7515C60.2954 34.4625 60.7765 34.3187 61.2941 34.3187C62.1403 34.3187 62.7975 34.5973 63.267 35.1551C63.7358 35.7124 63.9706 36.5104 63.9706 37.5493V38.0127H59.5614C59.5773 38.654 59.7638 39.1735 60.1211 39.5704C60.482 39.9636 60.9393 40.1599 61.4922 40.1599C61.8855 40.1599 62.2184 40.0795 62.4909 39.9191C62.7634 39.7588 63.0024 39.546 63.2066 39.2814L63.8864 39.8106C63.3408 40.6483 62.5232 41.0671 61.4325 41.0671ZM61.2971 35.232C60.8478 35.232 60.471 35.3966 60.1662 35.7252C59.8614 36.0501 59.673 36.5074 59.601 37.0969H62.8616V37.0128C62.8292 36.4476 62.6768 36.0105 62.4043 35.7014C62.1312 35.3886 61.7623 35.232 61.2971 35.232ZM68.1279 40.1587C68.5248 40.1587 68.8717 40.0386 69.1686 39.7978C69.4649 39.557 69.6295 39.2564 69.6612 38.8955H70.7142C70.694 39.2686 70.566 39.6234 70.3295 39.96C70.0929 40.2971 69.7759 40.5654 69.379 40.766C68.9857 40.9665 68.5687 41.0665 68.1279 41.0665C67.2415 41.0665 66.5355 40.7714 66.0105 40.1825C65.4893 39.5887 65.2283 38.779 65.2283 37.7523V37.5658C65.2283 36.9323 65.3448 36.369 65.577 35.8758C65.8099 35.3825 66.1428 34.9997 66.5757 34.7271C67.0128 34.4546 67.528 34.3181 68.1218 34.3181C68.8516 34.3181 69.457 34.5363 69.9386 34.9741C70.4233 35.4112 70.6824 35.9788 70.7142 36.6763H69.6612C69.6295 36.255 69.4692 35.9105 69.1802 35.6417C68.8955 35.3691 68.5425 35.2326 68.1218 35.2326C67.556 35.2326 67.1171 35.4368 66.8043 35.8465C66.4958 36.2513 66.341 36.8391 66.341 37.6091V37.8194C66.341 38.5693 66.4958 39.1467 66.8043 39.5521C67.1134 39.9563 67.5542 40.1587 68.1279 40.1587ZM76.2232 40.302C75.7891 40.8117 75.1538 41.0659 74.3161 41.0659C73.6223 41.0659 73.0925 40.8653 72.7279 40.4642C72.367 40.0593 72.1841 39.4619 72.1804 38.6717V34.4369H73.2937V38.6412C73.2937 39.6277 73.6936 40.1209 74.496 40.1209C75.3458 40.1209 75.9116 39.8039 76.1921 39.1704V34.4363H77.3047V40.9446H76.2463L76.2232 40.302ZM82.3973 35.4368C82.229 35.4088 82.0468 35.3947 81.8504 35.3947C81.1201 35.3947 80.625 35.7057 80.3647 36.3269V40.9464H79.2514V34.4382H80.3342L80.3525 35.1899C80.7171 34.6083 81.2347 34.3174 81.9047 34.3174C82.1217 34.3174 82.2857 34.3455 82.3973 34.4016V35.4368ZM84.9988 40.9458H83.7666V34.4369H84.9988V40.9458ZM83.6807 32.7122C83.6807 32.5317 83.7349 32.3793 83.8435 32.2549C83.9556 32.1305 84.119 32.0684 84.3361 32.0684C84.5531 32.0684 84.7165 32.1305 84.8299 32.2549C84.9421 32.3793 84.9976 32.5317 84.9976 32.7122C84.9976 32.8926 84.9421 33.0432 84.8299 33.1633C84.7165 33.2834 84.5531 33.3438 84.3361 33.3438C84.119 33.3438 83.9556 33.2834 83.8435 33.1633C83.7349 33.0426 83.6807 32.8926 83.6807 32.7122ZM88.4221 32.8622V34.4382H89.6384V35.2984H88.4221V39.3344C88.4221 39.5954 88.4764 39.7917 88.5849 39.924C88.6934 40.0526 88.8781 40.1167 89.1379 40.1167C89.2677 40.1167 89.4439 40.0923 89.6677 40.0447V40.947C89.3744 41.0275 89.0903 41.0671 88.8141 41.0671C88.3166 41.0671 87.9417 40.9165 87.6893 40.616C87.4369 40.3154 87.3101 39.888 87.3101 39.3351V35.299H86.1249V34.4388H87.3101V32.8628H88.4221V32.8622ZM93.3184 39.3155L94.834 34.4369H96.0254L93.4086 41.9499C93.0032 43.0327 92.36 43.5741 91.4784 43.5741L91.2675 43.5558L90.8523 43.4778V42.5755L91.1528 42.5999C91.5296 42.5999 91.8229 42.5236 92.0314 42.3712C92.2429 42.2188 92.4179 41.9402 92.5551 41.5354L92.8014 40.8739L90.4792 34.4375H91.6936L93.3184 39.3155ZM100.344 38.5949C100.344 38.1736 100.46 37.7871 100.692 37.4341C100.929 37.0811 101.377 36.6702 102.04 36.2013C101.651 35.7282 101.389 35.3472 101.258 35.0582C101.125 34.7698 101.059 34.4827 101.059 34.1979C101.059 33.5322 101.255 33.0109 101.648 32.6341C102.041 32.2567 102.574 32.0684 103.248 32.0684C103.849 32.0684 104.347 32.2446 104.74 32.5976C105.133 32.9463 105.329 33.3877 105.329 33.9212C105.329 34.2742 105.239 34.6009 105.059 34.9015C104.882 35.1984 104.571 35.5112 104.127 35.8398L103.482 36.3147L105.431 38.6425C105.705 38.1212 105.84 37.5414 105.84 36.9043H106.846C106.846 37.9267 106.599 38.7748 106.105 39.4485L107.357 40.9464H106.022L105.437 40.2544C105.141 40.519 104.792 40.7214 104.391 40.8617C103.994 40.9982 103.59 41.0665 103.176 41.0665C102.322 41.0665 101.636 40.8397 101.119 40.3867C100.602 39.9344 100.344 39.3369 100.344 38.5949ZM103.171 40.1581C103.761 40.1581 104.301 39.9338 104.79 39.4844L102.654 36.9281L102.456 37.0726C101.787 37.5658 101.451 38.073 101.451 38.5943C101.451 39.0674 101.604 39.4466 101.909 39.7313C102.218 40.0155 102.638 40.1581 103.171 40.1581ZM102.17 34.1614C102.17 34.5467 102.407 35.0277 102.88 35.6051L103.59 35.1057C103.863 34.9131 104.049 34.7308 104.149 34.5583C104.25 34.3815 104.299 34.1693 104.299 33.9205C104.299 33.6517 104.199 33.4291 103.999 33.253C103.799 33.0725 103.546 32.9823 103.241 32.9823C102.912 32.9823 102.652 33.0944 102.459 33.3188C102.267 33.5395 102.17 33.8206 102.17 34.1614ZM114.541 37.0427C113.549 36.758 112.828 36.4092 112.375 35.9959C111.925 35.5789 111.701 35.0655 111.701 34.4558C111.701 33.7663 111.976 33.1969 112.525 32.7475C113.078 32.2945 113.796 32.0677 114.678 32.0677C115.279 32.0677 115.815 32.1842 116.285 32.4165C116.758 32.6494 117.122 32.9701 117.379 33.3792C117.64 33.7882 117.771 34.2351 117.771 34.7204H116.609C116.609 34.1912 116.441 33.7761 116.104 33.4755C115.767 33.1706 115.292 33.0182 114.678 33.0182C114.109 33.0182 113.663 33.1444 113.343 33.3968C113.027 33.6456 112.868 33.9925 112.868 34.4375C112.868 34.7942 113.018 35.0972 113.318 35.346C113.624 35.5904 114.139 35.8154 114.864 36.0197C115.595 36.2239 116.164 36.4507 116.573 36.6994C116.986 36.9439 117.291 37.2305 117.487 37.5597C117.688 37.8883 117.788 38.2754 117.788 38.7205C117.788 39.4302 117.512 39.9996 116.957 40.4288C116.404 40.8537 115.665 41.0665 114.739 41.0665C114.136 41.0665 113.576 40.9519 113.054 40.7239C112.532 40.491 112.13 40.1746 111.845 39.7734C111.564 39.3722 111.424 38.9174 111.424 38.4077H112.585C112.585 38.9369 112.779 39.3558 113.168 39.6649C113.561 39.9697 114.084 40.1221 114.739 40.1221C115.347 40.1221 115.815 39.9978 116.14 39.749C116.465 39.5003 116.627 39.1613 116.627 38.7327C116.627 38.3035 116.477 37.973 116.176 37.7402C115.876 37.5042 115.33 37.2713 114.541 37.0427ZM123.362 40.302C122.93 40.8117 122.294 41.0659 121.457 41.0659C120.762 41.0659 120.233 40.8653 119.868 40.4642C119.508 40.0593 119.324 39.4619 119.32 38.6717V34.4369H120.433V38.6412C120.433 39.6277 120.834 40.1209 121.637 40.1209C122.486 40.1209 123.052 39.8039 123.333 39.1704V34.4363H124.445V40.9446H123.387L123.362 40.302ZM131.891 37.7645C131.891 38.7553 131.664 39.5533 131.211 40.1587C130.759 40.7641 130.146 41.0671 129.371 41.0671C128.581 41.0671 127.959 40.8166 127.507 40.3154V43.4491H126.393V34.4382H127.41L127.464 35.16C127.917 34.5985 128.547 34.3181 129.354 34.3181C130.135 34.3181 130.753 34.6125 131.207 35.2021C131.663 35.7916 131.891 36.6116 131.891 37.6621V37.7645V37.7645ZM130.774 37.6396C130.774 36.9055 130.618 36.3263 130.305 35.9014C129.992 35.4764 129.563 35.2637 129.018 35.2637C128.344 35.2637 127.839 35.5624 127.502 36.1599V39.2698C127.835 39.8636 128.344 40.1599 129.03 40.1599C129.563 40.1599 129.986 39.9496 130.299 39.5283C130.615 39.1034 130.774 38.4736 130.774 37.6396ZM139.054 37.7645C139.054 38.7553 138.827 39.5533 138.375 40.1587C137.921 40.7641 137.308 41.0671 136.534 41.0671C135.744 41.0671 135.123 40.8166 134.669 40.3154V43.4491H133.557V34.4382H134.573L134.627 35.16C135.08 34.5985 135.71 34.3181 136.516 34.3181C137.298 34.3181 137.915 34.6125 138.369 35.2021C138.826 35.7916 139.054 36.6116 139.054 37.6621V37.7645ZM137.938 37.6396C137.938 36.9055 137.782 36.3263 137.469 35.9014C137.156 35.4764 136.727 35.2637 136.181 35.2637C135.508 35.2637 135.002 35.5624 134.666 36.1599V39.2698C134.999 39.8636 135.508 40.1599 136.194 40.1599C136.727 40.1599 137.15 39.9496 137.462 39.5283C137.781 39.1034 137.938 38.4736 137.938 37.6396ZM140.425 37.6322C140.425 36.9945 140.549 36.4208 140.798 35.9117C141.05 35.4027 141.4 35.0094 141.845 34.7326C142.293 34.4558 142.804 34.3174 143.379 34.3174C144.265 34.3174 144.98 34.6241 145.526 35.2381C146.075 35.852 146.35 36.6677 146.35 37.6865V37.7645C146.35 38.398 146.228 38.9674 145.983 39.4728C145.743 39.974 145.395 40.3654 144.942 40.6459C144.494 40.9263 143.976 41.0671 143.391 41.0671C142.509 41.0671 141.793 40.7605 141.244 40.1465C140.698 39.5326 140.425 38.7211 140.425 37.7103V37.6322ZM141.54 37.7645C141.54 38.4864 141.706 39.0656 142.039 39.5027C142.375 39.9399 142.824 40.1587 143.387 40.1587C143.952 40.1587 144.4 39.938 144.733 39.4972C145.067 39.0522 145.233 38.4309 145.233 37.6328C145.233 36.9189 145.062 36.3416 144.722 35.9008C144.384 35.4557 143.936 35.2332 143.374 35.2332C142.824 35.2332 142.381 35.4514 142.045 35.8892C141.708 36.3251 141.54 36.9506 141.54 37.7645ZM151.139 35.4368C150.97 35.4088 150.787 35.3947 150.591 35.3947C149.861 35.3947 149.366 35.7057 149.105 36.3269V40.9464H147.993V34.4382H149.075L149.093 35.1899C149.458 34.6083 149.976 34.3174 150.645 34.3174C150.862 34.3174 151.025 34.3455 151.139 34.4016V35.4368V35.4368ZM154.221 32.8622V34.4382H155.437V35.2984H154.221V39.3344C154.221 39.5954 154.275 39.7917 154.384 39.924C154.492 40.0526 154.677 40.1167 154.937 40.1167C155.066 40.1167 155.243 40.0923 155.467 40.0447V40.947C155.173 41.0275 154.889 41.0671 154.613 41.0671C154.116 41.0671 153.741 40.9165 153.488 40.616C153.235 40.3154 153.109 39.888 153.109 39.3351V35.299H151.924V34.4388H153.109V32.8628H154.221V32.8622Z" fill="#130F40"/>
</svg>
