<svg width="40" height="40" viewBox="0 0 40 40" fill="none" xmlns="http://www.w3.org/2000/svg">
<circle cx="20" cy="20" r="20" fill="#F50303" fill-opacity="0.1"/>
<path d="M21.6579 19.9987L26.5123 15.1443C26.7343 14.9236 26.8571 14.6284 26.8571 14.315C26.8571 14.0015 26.7343 13.7077 26.5123 13.4856C26.0709 13.0429 25.2977 13.0403 24.8537 13.4856L19.9993 18.34L15.1449 13.4856C14.6878 13.0285 13.9434 13.0285 13.4863 13.4856C13.0292 13.9427 13.0292 14.6859 13.4863 15.1443L18.3407 19.9987L13.4863 24.8531C13.2643 25.0751 13.1428 25.3702 13.1428 25.6824C13.1428 25.9958 13.2643 26.291 13.4863 26.5117C13.9303 26.957 14.7048 26.9544 15.1449 26.5117L19.9993 21.6573L24.8537 26.5117C25.0757 26.7337 25.3709 26.8565 25.683 26.8565C25.9965 26.8565 26.2929 26.7337 26.5123 26.5117C26.7343 26.291 26.8571 25.9958 26.8571 25.6837C26.8571 25.3715 26.7343 25.0751 26.5123 24.8531L21.6579 19.9987Z" fill="#F50303"/>
</svg>
