<svg width="17" height="18" viewBox="0 0 17 18" fill="none" xmlns="http://www.w3.org/2000/svg">
<path opacity="0.7" fill-rule="evenodd" clip-rule="evenodd" d="M9.99579 8.53196L5.68926 4.22551C5.61626 4.15247 5.57972 4.06842 5.57972 3.97347C5.57972 3.87851 5.61622 3.79446 5.68926 3.72158L6.23722 3.17362C6.3103 3.10062 6.39431 3.06396 6.48904 3.06396C6.58403 3.06396 6.66804 3.10062 6.74108 3.17362L11.8476 8.27988C11.9206 8.35291 11.957 8.43697 11.957 8.53192C11.957 8.62691 11.9206 8.71093 11.8476 8.78397L6.74135 13.8902C6.6682 13.9634 6.5841 13.9999 6.48915 13.9999C6.39431 13.9999 6.3103 13.9634 6.23726 13.8902L5.6893 13.3426C5.6163 13.2696 5.57988 13.1855 5.57988 13.0905C5.57988 12.9956 5.61626 12.9116 5.6893 12.8386L9.99579 8.53196Z" fill="#130F40"/>
</svg>
