<svg width="38" height="38" viewBox="0 0 38 38" fill="none" xmlns="http://www.w3.org/2000/svg">
<rect opacity="0.1" width="38" height="38" rx="10" fill="#AE00B9"/>
<path d="M25.9943 17.1524C25.9867 16.5377 25.6225 15.9838 25.0686 15.7562C24.8106 15.6424 24.5374 15.65 24.3022 15.6575H24.2263C24.2187 15.6575 24.2111 15.6575 24.2111 15.6575C24.2035 15.65 24.2035 15.6424 24.1959 15.6347C23.8013 14.8607 23.2702 14.1702 22.6403 13.6087C22.5568 13.5329 22.4734 13.457 22.3899 13.4039C22.223 13.2672 22.0485 13.1382 21.8739 13.0169C21.7828 12.9637 21.6918 12.903 21.6007 12.8499C21.4111 12.7436 21.2213 12.645 21.0241 12.554C20.8343 12.4553 20.6295 12.3794 20.4246 12.3187C20.3487 12.2884 20.2652 12.2656 20.1817 12.2429C20.0224 12.1973 19.8631 12.1594 19.7037 12.129C19.5216 12.0911 19.3395 12.0607 19.1497 12.038C19.1422 12.0455 19.1346 12.038 19.127 12.038C18.9448 12.0228 18.7552 12.0076 18.5655 12H18.482C18.3606 12 18.2316 12.0076 18.1102 12.0151C16.9188 12.0835 15.8185 12.5009 14.8776 13.1686C14.8548 13.1837 14.8396 13.199 14.8169 13.2141C14.6651 13.3204 14.521 13.4417 14.3844 13.5632C14.2933 13.6391 14.2022 13.715 14.1187 13.806C13.5724 14.3372 13.102 14.967 12.7529 15.6651H12.7453H12.5707C12.5101 15.6575 12.4417 15.65 12.3811 15.6575C12.3204 15.6575 12.2521 15.6651 12.199 15.6727C11.7361 15.7259 11.3263 16.0445 11.129 16.4922C11.0455 16.6895 11 16.902 11 17.1145V20.9237C11 21.0983 11.0228 21.2652 11.0835 21.4322C11.2732 21.9937 11.7816 22.3807 12.3355 22.3807C12.4266 22.3883 12.5252 22.3883 12.6542 22.3807H12.7225C13.1399 23.2382 13.7242 23.9894 14.4299 24.5813C14.6575 24.7862 14.8927 24.9607 15.1432 25.1201C15.2646 25.2035 15.3936 25.2718 15.5226 25.3477C15.6592 25.4236 15.8034 25.4918 15.94 25.5602C16.1903 25.6739 16.4483 25.7726 16.714 25.8485C16.7215 25.8561 16.7291 25.8561 16.7367 25.8561C16.8505 25.8941 16.9643 25.9244 17.0782 25.9472C17.5335 26.0609 17.9963 26.1141 18.4744 26.1141C18.7855 26.1141 19.1042 26.0913 19.4153 26.0382C19.5443 26.0154 19.681 25.9927 19.8023 25.9699C19.9237 25.9396 20.0376 25.9092 20.1514 25.8788C20.3638 25.8182 20.5612 25.7574 20.7585 25.6739C20.8495 25.6361 20.9406 25.5981 21.0241 25.5602C21.7146 25.2642 22.3292 24.8317 22.8756 24.2777C22.9514 24.2018 23.0273 24.126 23.1032 24.0425C23.2171 23.9211 23.3233 23.7921 23.4295 23.6555C23.7103 23.3065 23.9607 22.9271 24.1732 22.5173C24.2642 22.3958 24.3628 22.3655 24.5374 22.3655H24.5602C24.9396 22.3655 25.2962 22.2213 25.5542 21.9557C25.8349 21.675 25.9867 21.288 25.9943 20.8706C26.0019 19.778 26.0019 18.5942 25.9943 17.1524ZM20.6143 22.1986H19.514L18.4972 18.7156L17.4727 22.1986H16.3725L14.7486 16.3708H16.1296L16.1448 16.4012L16.9871 19.5047L17.9963 16.3708H18.9904L19.9996 19.5047L20.8571 16.3708H22.2457L22.2382 16.4164L20.6143 22.1986Z" fill="#AE00B9"/>
</svg>
