<svg width="40" height="40" viewBox="0 0 40 40" fill="none" xmlns="http://www.w3.org/2000/svg">
<circle cx="20" cy="20" r="20" fill="#F50303"/>
<path d="M21.6577 19.9984L26.5121 15.144C26.7341 14.9233 26.8569 14.6282 26.8569 14.3147C26.8569 14.0013 26.7341 13.7074 26.5121 13.4854C26.0707 13.0427 25.2975 13.0401 24.8535 13.4854L19.9991 18.3398L15.1447 13.4854C14.6876 13.0283 13.9432 13.0283 13.4861 13.4854C13.029 13.9425 13.029 14.6856 13.4861 15.144L18.3405 19.9984L13.4861 24.8528C13.264 25.0748 13.1426 25.37 13.1426 25.6821C13.1426 25.9956 13.264 26.2907 13.4861 26.5114C13.9301 26.9568 14.7046 26.9542 15.1447 26.5114L19.9991 21.657L24.8535 26.5114C25.0755 26.7334 25.3706 26.8562 25.6828 26.8562C25.9962 26.8562 26.2927 26.7334 26.5121 26.5114C26.7341 26.2907 26.8569 25.9956 26.8569 25.6834C26.8569 25.3713 26.7341 25.0748 26.5121 24.8528L21.6577 19.9984Z" fill="white"/>
</svg>
