<svg width="30" height="30" viewBox="0 0 30 30" fill="none" xmlns="http://www.w3.org/2000/svg">
<rect x="0.5" y="0.5" width="29" height="29" rx="14.5" fill="#FF1B28" stroke="#FF1B28"/>
<path d="M15.6871 15L18.6075 12.0795C18.7975 11.8896 18.7975 11.5824 18.6075 11.3925C18.4175 11.2025 18.1104 11.2025 17.9204 11.3925L15 14.3129L12.0796 11.3925C11.8896 11.2025 11.5825 11.2025 11.3925 11.3925C11.2025 11.5824 11.2025 11.8896 11.3925 12.0795L14.3129 15L11.3925 17.9204C11.2025 18.1104 11.2025 18.4175 11.3925 18.6075C11.4872 18.7023 11.6117 18.7499 11.7361 18.7499C11.8605 18.7499 11.9848 18.7023 12.0796 18.6075L15 15.6871L17.9204 18.6075C18.0152 18.7023 18.1396 18.7499 18.2639 18.7499C18.3883 18.7499 18.5127 18.7023 18.6075 18.6075C18.7975 18.4175 18.7975 18.1104 18.6075 17.9204L15.6871 15Z" fill="white" stroke="white" stroke-width="0.5"/>
</svg>
