<svg width="28" height="28" viewBox="0 0 28 28" fill="none" xmlns="http://www.w3.org/2000/svg">
<path d="M14 4C16.482 4 18.8351 4.86109 20.8839 6.45527C22.9327 8.03665 24.6771 10.3535 25.9298 13.2509C26.0234 13.4708 26.0234 13.728 25.9298 13.9375C23.4244 19.7324 18.9639 23.2 14 23.2H13.9883C9.0361 23.2 4.57561 19.7324 2.07024 13.9375C1.97659 13.728 1.97659 13.4708 2.07024 13.2509C4.57561 7.45484 9.0361 4 13.9883 4H14ZM14 8.94545C11.4127 8.94545 9.31707 11.0284 9.31707 13.6C9.31707 16.16 11.4127 18.2429 14 18.2429C16.5756 18.2429 18.6712 16.16 18.6712 13.6C18.6712 11.0284 16.5756 8.94545 14 8.94545Z" fill="#130F40" fill-opacity="0.25"/>
<path d="M16.9171 13.5962C16.9171 15.1904 15.6059 16.4937 14.002 16.4937C12.3864 16.4937 11.0752 15.1904 11.0752 13.5962C11.0752 13.3984 11.0986 13.2134 11.1337 13.0272H11.1923C12.4918 13.0272 13.5454 12.0032 13.5923 10.722C13.721 10.6999 13.8615 10.6871 14.002 10.6871C15.6059 10.6871 16.9171 11.9904 16.9171 13.5962Z" fill="#130F40"/>
</svg>
